<svg xmlns="http://www.w3.org/2000/svg" viewBox="0 0 225 225"><defs><style>.cls-2,.cls-3{fill:#c8c8c8}.cls-19,.cls-3{opacity:.6;mix-blend-mode:multiply}.cls-4{fill:#e4003c}.cls-5{fill:#e6e7e8}.cls-8{fill:#f1f2f2}.cls-15,.cls-19{fill:#fbda96}.cls-16{fill:#de8833}.cls-17{fill:#fff5e4}.cls-18{fill:#eec177}</style></defs><g style="isolation:isolate"><g id="Objects"><path d="M88.54 205.44s-20.88 2.76-32-.37l1.17 4.34c8.68 4.39 31.5 1.37 31.5 1.37s22.84-2.87 30.13-9.32v-4.48c-9.91 5.84-30.8 8.46-30.8 8.46z" class="cls-2"/><path d="M88.54 205.44s-20.88 2.76-32-.37l.46 1.53c33.87 6.71 62.4-6.81 62.4-6.81v-2.81c-9.97 5.84-30.86 8.46-30.86 8.46z" class="cls-3"/><path d="M71.52 73.4c-12.63 1.91-48.47 2.16-48.47 2.16l30.47 128.71c9.67 4.89 35.06 1.53 35.06 1.53s25.41-3.19 33.53-10.37L119 63.2s-35.73 9.04-47.48 10.2z" class="cls-4"/><path d="M71.52 73.4c-12.63 1.91-48.47 2.16-48.47 2.16l1.57 5.85S65 84 101.4 76.12l7.85 125-.83 5.6c4.42-1.38 8.53-3.11 10.93-5.24v-4.1a16.53 16.53 0 002.74-1.93L119 63.2s-35.73 9.04-47.48 10.2z" class="cls-3"/><path d="M124.93 63.76A316.16 316.16 0 0117.41 77.61C17 74 16.63 71.5 16.16 67.9l107.52-13.85c.46 3.59.78 6.11 1.25 9.71z" class="cls-2"/><path d="M123.68 54.05c.41 3.24-23.32 9-53 12.8s-54.1 4.3-54.52 1.05 23.32-9 53-12.8 54.1-4.3 54.52-1.05z" class="cls-5"/><path fill="#a0a0a0" d="M83.71 59.2c.11.83-6 2.3-13.6 3.28s-13.87 1.11-14 .27 6-2.3 13.6-3.28 13.9-1.1 14-.27z"/><path d="M91.15 52.79c.51 0 38.48-1.4 10.55 9l-.16 8.21c7.87-1.8 15.68-3.87 23.39-6.26-.47-3.6-.79-6.12-1.25-9.71-.31-2.37-13.68-2.74-32.53-1.24z" style="mix-blend-mode:multiply" fill="#e6e7e8" opacity=".6"/><path d="M20.93 66.82s-6.06 6.45 49.89 0c0 0-58.68 5.74-42.93-2.36 0-.05-5.89.25-6.96 2.36z" class="cls-8"/><path fill="#5f9aac" d="M22.25 31.85l28.28-13.13 16 44.18s5.57-.68 7.86-1l-18-49.7A3.84 3.84 0 0051.1 10L19 24.88s-1.43 5.41 3.25 6.97z"/><path d="M66.48 62.9l2.61-.33-18-46.26s-27.54 12-31 14.17a5 5 0 002.16 1.37l28.28-13.13z" style="mix-blend-mode:multiply" fill="#5f9aac" opacity=".4"/><path fill="#22667e" d="M23.07 28c.67 2 .18 3.73-1.09 3.89s-2.84-1.32-3.51-3.3-.19-3.74 1.08-3.9S22.4 26 23.07 28z"/><path fill="#fff" d="M26.47 22.8l26.4-12.38a2.31 2.31 0 00-2 .18c-1.21.61-29.68 14-29.68 14z" opacity=".3"/><path d="M98.77 132.53a23.49 23.49 0 11-26.24-19.88 23.28 23.28 0 0126.24 19.88z" class="cls-5"/><path fill="#e6e7e8" d="M27.43 83.28l7.19.67 26.3 120.64-5.26-1.46L27.43 83.28z" opacity=".4"/><path d="M158.44 96.61l-14.35 118.22s19.16-7.55 29.43-7.88l32.73-89S191 96.12 158.44 96.61z" class="cls-5"/><path fill="#d3d3d3" d="M158.44 96.61l-14.12 117s-25.64-10.53-35.68-12.08L98.36 100.79s31.75-18.22 60.08-4.18z"/><path d="M112.05 97.92s-1.75 4.73 1.63 7.91 9.67 2.23 10.64 1.19 3.59-2.51 5.18-4.2 2.54-7.91-1.37-7.66-5.85 2.83-7.41 1.36-6.99-1.68-8.67 1.4z" class="cls-15"/><path d="M120.3 103.23s3.69 1 5.54-.42 4.41-4.43 1.62-4.85-4.26 1.14-5.54.67-2.82 2.74-1.62 4.6z" class="cls-16"/><path d="M119.87 105.76a2.84 2.84 0 01-2.91 0 8.59 8.59 0 01-2.61-3c-.41-.88-.12-3.79 1.18-2.82s1 1.23 1.33 2.49 4.43 2.93 3.01 3.33z" class="cls-17"/><path d="M123.51 98.51c1.58-.12 2.27-1.64 5.06-1.47s1.65 4.6 1.64 4.61c1.06-2.4 1.18-6.69-2.08-6.49-3.91.25-5.85 2.83-7.41 1.36 0 0 1.2 2.11 2.79 1.99zM113.68 105.83a7.41 7.41 0 001.5 1.06c-3.66-2.32-1-5.61-1.44-7.38s2.56-4 2.56-4a5.28 5.28 0 00-4.25 2.39s-1.75 4.75 1.63 7.93z" class="cls-18"/><path d="M156 78.35s-.11-5-4.43-6.75-9.8 1.5-10.33 2.83-2.4 3.65-3.26 5.81.57 8.28 4.11 6.61 4.38-4.79 6.38-4 7.1-1.02 7.53-4.5z" class="cls-15"/><path d="M146.37 76.46s-3.81.41-5 2.44-2.46 5.74.29 5.1 3.53-2.63 4.89-2.67 1.61-3.58-.18-4.87z" class="cls-16"/><path d="M145.83 73.94a2.82 2.82 0 012.71-1 8.59 8.59 0 013.52 1.77c.7.66 1.51 3.48-.05 3s-1.43-.76-2.17-1.81-5.18-1.06-4.01-1.96z" class="cls-17"/><path d="M145.12 82c-1.43.7-1.51 2.36-4.16 3.23s-3.22-3.66-3.23-3.68c-.09 2.63 1.38 6.67 4.34 5.27 3.54-1.67 4.38-4.79 6.38-4 0 .03-1.9-1.49-3.33-.82zM151.55 71.6a7 7 0 00-1.79-.43c4.25.81 3 4.85 4.06 6.32s-.91 4.64-.91 4.64a5.2 5.2 0 003.09-3.78s-.13-5.04-4.45-6.75z" class="cls-18"/><path d="M153.58 70.09s3.82-3.29 8-1.23 5.46 8.28 4.83 9.56-1.1 4.23-2.13 6.31-6.53 5.14-7.66 1.39.62-6.47-1.3-7.42-4.04-5.97-1.74-8.61z" class="cls-15"/><path d="M161.43 76s2.25 3.11 1.54 5.34-2.62 5.68-4 3.21-.42-4.38-1.3-5.42 1.6-3.64 3.76-3.13z" class="cls-16"/><path d="M163.66 74.68a2.84 2.84 0 00-1-2.71 8.6 8.6 0 00-3.67-1.42c-1-.08-3.59 1.21-2.23 2.08s1.52.55 2.79.39 4.23 3.13 4.11 1.66z" class="cls-17"/><path d="M158.13 80.62c.44 1.53-.74 2.7.39 5.25s4.88-.05 4.89-.06c-1.88 1.82-5.86 3.44-6.81.31-1.13-3.75.62-6.47-1.3-7.42 0 0 2.39.39 2.83 1.92zM161.56 68.86a7.26 7.26 0 011.52 1c-3.44-2.61-5.59 1-7.41 1.23s-2.83 3.78-2.83 3.78a5.24 5.24 0 01.75-4.81s3.81-3.26 7.97-1.2z" class="cls-18"/><path d="M169.37 77.52s-4.92-1.13-7.64 2.63-1 9.87.18 10.7 3 3.24 4.83 4.6 8.16 1.51 7.42-2.34-3.55-5.44-2.3-7.17.78-7.15-2.49-8.42z" class="cls-15"/><path d="M165.16 86.37s-.54 3.79 1.12 5.44 5 3.82 5 1-1.68-4.07-1.38-5.4-3.05-2.41-4.74-1.04z" class="cls-16"/><path d="M162.59 86.27a2.84 2.84 0 01-.34-2.88 8.76 8.76 0 012.59-3c.82-.51 3.74-.59 2.95.81s-1.09 1.2-2.3 1.65-2.32 4.78-2.9 3.42z" class="cls-17"/><path d="M170.25 89c.32 1.55 1.91 2 2.1 4.83S168 96 168 96c2.53.73 6.8.31 6.18-2.9-.74-3.84-3.55-5.44-2.3-7.17-.02.01-1.96 1.47-1.63 3.07zM161.73 80.15a7.2 7.2 0 00-.86 1.62c1.83-3.92 5.43-1.69 7.13-2.37s4.27 2 4.27 2a5.24 5.24 0 00-2.91-3.91s-4.91-1.1-7.63 2.66z" class="cls-18"/><path d="M169.37 77.52s-4.92-1.13-7.64 2.63-1 9.87.18 10.7 3 3.24 4.83 4.6 8.16 1.51 7.42-2.34-3.55-5.44-2.3-7.17.78-7.15-2.49-8.42z" class="cls-19"/><path d="M178.86 102.22s3.61-3.51 1.93-7.84-7.77-6.17-9.1-5.65-4.31.72-6.47 1.56-5.69 6-2.06 7.5 6.5 0 7.27 2 5.57 4.49 8.43 2.43z" class="cls-15"/><path d="M173.7 93.88s-2.89-2.51-5.18-2-5.89 2.12-3.52 3.68 4.33.8 5.28 1.77 3.72-1.25 3.42-3.45z" class="cls-16"/><path d="M175.18 91.78a2.84 2.84 0 012.61 1.28 8.61 8.61 0 011.09 3.79c0 1-1.53 3.47-2.28 2s-.41-1.56-.14-2.81-2.73-4.51-1.28-4.26z" class="cls-17"/><path d="M168.77 96.76c-1.48-.57-2.76.5-5.2-.85s.49-4.86.5-4.87c-2 1.72-3.94 5.54-.91 6.75 3.63 1.47 6.5 0 7.27 2 0-.04-.18-2.46-1.66-3.03zM180.79 94.38a6.79 6.79 0 00-.9-1.6c2.3 3.67-1.52 5.48-1.87 7.28s-4 2.49-4 2.49a5.26 5.26 0 004.86-.33s3.59-3.51 1.91-7.84z" class="cls-18"/><path d="M127.17 83.94s-.36 5 3.78 7.13 9.9-.57 10.55-1.84 2.73-3.41 3.79-5.48.21-8.3-3.47-7-4.82 4.36-6.73 3.39-7.18.38-7.92 3.8z" class="cls-15"/><path d="M136.57 86.72s3.83 0 5.2-2 3-5.49.19-5.11-3.76 2.29-5.12 2.2-1.94 3.46-.27 4.91z" class="cls-16"/><path d="M136.87 89.28a2.86 2.86 0 01-2.8.78 8.89 8.89 0 01-3.34-2.1c-.63-.73-1.17-3.6.34-3s1.35.89 2 2 5.05 1.53 3.8 2.32z" class="cls-17"/><path d="M138.33 81.29c1.48-.56 1.72-2.21 4.44-2.83s2.87 4 2.87 4c.34-2.61-.75-6.76-3.82-5.65-3.68 1.33-4.82 4.36-6.73 3.39 0-.03 1.75 1.65 3.24 1.09zM131 91.07a6.9 6.9 0 001.74.6c-4.15-1.2-2.51-5.1-3.44-6.68s1.33-4.53 1.33-4.53a5.23 5.23 0 00-3.4 3.48s-.42 5.06 3.77 7.13z" class="cls-18"/><path d="M127.17 83.94s-.36 5 3.78 7.13 9.9-.57 10.55-1.84 2.73-3.41 3.79-5.48.21-8.3-3.47-7-4.82 4.36-6.73 3.39-7.18.38-7.92 3.8z" class="cls-19"/><path d="M156.64 89.89s1.3-4.87-2.36-7.72-9.83-1.31-10.71-.18-3.33 2.84-4.75 4.67-1.78 8.11 2.08 7.49 5.56-3.37 7.25-2.05 7.12 1.01 8.49-2.21z" class="cls-15"/><path d="M147.94 85.39s-3.77-.68-5.48.94-4 4.82-1.15 5 4.13-1.53 5.44-1.19 2.55-3.02 1.19-4.75z" class="cls-16"/><path d="M148.13 82.82a2.84 2.84 0 012.89-.24 8.51 8.51 0 012.88 2.69c.49.83.48 3.76-.9 2.91s-1.16-1.12-1.57-2.34-4.68-2.49-3.3-3.02z" class="cls-17"/><path d="M145.19 90.38c-1.57.27-2.11 1.85-4.9 1.94s-2.08-4.42-2.07-4.43c-.82 2.49-.54 6.78 2.68 6.26 3.87-.61 5.56-3.37 7.25-2.05 0 0-1.4-1.99-2.96-1.72zM154.28 82.17a7.07 7.07 0 00-1.6-.92c3.87 2 1.51 5.49 2.13 7.2s-2.16 4.2-2.16 4.21a5.23 5.23 0 004-2.78s1.29-4.88-2.37-7.71z" class="cls-18"/><path d="M168.12 83.17s-4.8 1.55-5.2 6.17 4.23 9 5.65 9.1 4.19 1.26 6.5 1.46 7.78-2.9 5.17-5.81-5.85-2.84-5.66-5-3.01-6.51-6.46-5.92z" class="cls-15"/><path d="M169.05 92.93s1.49 3.53 3.76 4.09 6.21.72 4.81-1.73-3.53-2.64-4-3.93-3.85-.52-4.57 1.57z" class="cls-16"/><path d="M166.79 94.16a2.82 2.82 0 01-1.76-2.3 8.51 8.51 0 01.7-3.88c.43-.86 2.9-2.43 2.93-.82s-.31 1.59-1.12 2.59.46 5.25-.75 4.41z" class="cls-17"/><path d="M174.74 92.53c1.08 1.17 2.7.77 4.29 3.06s-2.59 4.15-2.61 4.15c2.55-.66 6-3.22 3.82-5.65-2.62-2.92-5.85-2.84-5.66-5 0 .02-.91 2.27.16 3.44zM162.92 89.34a6.66 6.66 0 00.09 1.84c-.44-4.31 3.79-4.24 4.9-5.7s4.71-.45 4.71-.45a5.22 5.22 0 00-4.5-1.86s-4.8 1.55-5.2 6.17z" class="cls-18"/><path d="M168.12 83.17s-4.8 1.55-5.2 6.17 4.23 9 5.65 9.1 4.19 1.26 6.5 1.46 7.78-2.9 5.17-5.81-5.85-2.84-5.66-5-3.01-6.51-6.46-5.92z" class="cls-19"/><path d="M179.84 92.65s1.3-4.87-2.37-7.72-9.83-1.31-10.71-.18-3.33 2.84-4.75 4.67-1.78 8.11 2.09 7.49 5.55-3.36 7.24-2 7.13.96 8.5-2.26z" class="cls-15"/><path d="M171.13 88.15s-3.77-.68-5.47.94-4 4.82-1.16 5 4.13-1.54 5.45-1.2 2.55-3.01 1.18-4.74z" class="cls-16"/><path d="M171.32 85.58a2.85 2.85 0 012.9-.24A8.71 8.71 0 01177.1 88c.49.83.47 3.76-.91 2.91s-1.16-1.12-1.56-2.34-4.63-2.46-3.31-2.99z" class="cls-17"/><path d="M168.38 93.14c-1.56.27-2.11 1.85-4.89 1.94s-2.08-4.42-2.08-4.43c-.82 2.49-.54 6.78 2.69 6.26 3.86-.61 5.55-3.36 7.24-2 0-.05-1.34-2.04-2.96-1.77zM177.47 84.93a6.81 6.81 0 00-1.59-.91c3.86 2 1.51 5.49 2.13 7.2s-2.17 4.21-2.17 4.21a5.26 5.26 0 004-2.78s1.3-4.87-2.37-7.72z" class="cls-18"/><path d="M168.89 99.24s-2.28-4.5.72-8 9.34-3.32 10.44-2.4 3.84 2.09 5.61 3.59 3.42 7.57-.49 7.76-6.17-2.19-7.52-.55-6.75 2.47-8.76-.4z" class="cls-15"/><path d="M176.47 93s3.55-1.44 5.55-.21 4.89 3.9 2.16 4.63-4.36-.65-5.57 0S175.5 95 176.47 93z" class="cls-16"/><path d="M175.76 90.56a2.83 2.83 0 00-2.88.36 8.68 8.68 0 00-2.27 3.23c-.3.91.32 3.78 1.49 2.66s.9-1.34 1.05-2.62 4.06-3.4 2.61-3.63z" class="cls-17"/><path d="M180.2 97.35c1.59-.06 2.44 1.37 5.19.89s1.12-4.76 1.11-4.77c1.32 2.27 1.93 6.52-1.33 6.68-3.91.2-6.13-2.14-7.52-.51 0 0 .96-2.23 2.55-2.29zM169.61 91.2A6.89 6.89 0 01171 90c-3.37 2.72-.34 5.69-.59 7.49s3 3.67 3 3.67a5.25 5.25 0 01-4.48-1.89s-2.32-4.53.68-8.07z" class="cls-18"/><path d="M103.87 98.25s-.08 5 4.16 6.92 9.86-1.09 10.43-2.39S121 99.22 122 97.1s-.23-8.3-3.83-6.77-4.58 4.6-6.54 3.73-7.2.74-7.76 4.19z" class="cls-15"/><path d="M113.41 100.53s3.82-.26 5.09-2.23 2.69-5.64-.08-5.11-3.64 2.49-5 2.47-1.76 3.51-.01 4.87z" class="cls-16"/><path d="M113.84 103.07a2.83 2.83 0 01-2.75.92 8.62 8.62 0 01-3.45-1.92c-.67-.68-1.36-3.53.18-3s1.4.82 2.09 1.9 5.14 1.25 3.93 2.1z" class="cls-17"/><path d="M114.87 95c1.46-.64 1.61-2.3 4.29-3.06s3.08 3.79 3.08 3.8c.2-2.62-1.1-6.71-4.11-5.43-3.6 1.52-4.58 4.6-6.54 3.73 0 .02 1.83 1.62 3.28.96zM108 105.17a6.55 6.55 0 001.76.51c-4.22-1-2.78-5-3.79-6.48s1.09-4.6 1.09-4.6a5.22 5.22 0 00-3.22 3.65s-.05 5.04 4.16 6.92z" class="cls-18"/><path d="M103.87 98.25s-.08 5 4.16 6.92 9.86-1.09 10.43-2.39S121 99.22 122 97.1s-.23-8.3-3.83-6.77-4.58 4.6-6.54 3.73-7.2.74-7.76 4.19z" class="cls-19"/><path d="M131.76 92.66s-1.07-4.92-5.63-5.78-9.34 3.33-9.61 4.73-1.66 4-2.09 6.32 2.12 8 5.28 5.72 3.4-5.54 5.5-5.14 6.79-2.36 6.55-5.85z" class="cls-15"/><path d="M122 92.63s-3.66 1.13-4.44 3.34-1.33 6.11 1.25 5 3-3.26 4.3-3.55.89-3.87-1.11-4.79z" class="cls-16"/><path d="M121 90.26a2.85 2.85 0 012.47-1.53 8.51 8.51 0 013.79 1.08c.82.51 2.14 3.12.53 3s-1.55-.47-2.46-1.37-5.33-.08-4.33-1.18z" class="cls-17"/><path d="M121.8 98.34c-1.27 1-1 2.6-3.47 4s-3.87-3-3.87-3c.41 2.6 2.61 6.28 5.25 4.35 3.16-2.31 3.4-5.54 5.5-5.14 0-.04-2.14-1.17-3.41-.21zM126.13 86.88a7.05 7.05 0 00-1.83-.09c4.33 0 3.85 4.19 5.18 5.44s0 4.73 0 4.73a5.21 5.21 0 002.29-4.3s-1.08-4.92-5.64-5.78z" class="cls-18"/><path d="M117.42 100.79s.92 4.95 5.45 5.94 9.44-3 9.75-4.44 1.78-4 2.28-6.26-1.9-8.03-5.11-5.87-3.57 5.43-5.66 5-6.86 2.13-6.71 5.63z" class="cls-15"/><path d="M127.21 101.11s3.7-1 4.54-3.21 1.51-6.06-1.1-5-3.07 3.16-4.4 3.42-1.02 3.81.96 4.79z" class="cls-16"/><path d="M128.15 103.5a2.84 2.84 0 01-2.51 1.46 8.62 8.62 0 01-3.76-1.18c-.8-.54-2-3.19-.44-3s1.53.52 2.43 1.44 5.29.21 4.28 1.28z" class="cls-17"/><path d="M127.54 95.41c1.3-.92 1.12-2.57 3.59-3.86s3.78 3.1 3.78 3.11c-.33-2.6-2.43-6.35-5.12-4.5-3.23 2.22-3.57 5.43-5.66 5 0-.02 2.12 1.17 3.41.25zM122.87 106.73a7.15 7.15 0 001.84.15c-4.32-.11-3.72-4.3-5-5.58s.15-4.73.15-4.73a5.22 5.22 0 00-2.41 4.23s.89 4.94 5.42 5.93z" class="cls-18"/><path d="M139.54 90.76s.73 5-3.23 7.4-9.92.17-10.66-1-3-3.2-4.19-5.18-.84-8.26 2.93-7.21 5.14 4 7 2.87 7.16-.24 8.15 3.12z" class="cls-15"/><path d="M130.38 94.24s-3.82.23-5.33-1.57-3.4-5.25-.58-5.07 3.93 2 5.27 1.81 2.19 3.26.64 4.83z" class="cls-16"/><path d="M130.27 96.81a2.82 2.82 0 002.85.56 8.48 8.48 0 003.17-2.37c.58-.76.9-3.68-.56-3s-1.29 1-1.83 2.15-4.9 1.97-3.63 2.66z" class="cls-17"/><path d="M128.22 89c-1.52-.45-1.89-2.08-4.64-2.49S121 90.62 121 90.64c-.53-2.58.24-6.8 3.38-5.92 3.78 1 5.14 4 7 2.87-.02 0-1.64 1.82-3.16 1.41zM136.31 98.16a7.35 7.35 0 01-1.69.72c4.06-1.51 2.13-5.28 2.94-6.91s-1.67-4.43-1.67-4.43a5.23 5.23 0 013.65 3.22s.73 4.98-3.23 7.4z" class="cls-18"/><path d="M139.54 90.76s.73 5-3.23 7.4-9.92.17-10.66-1-3-3.2-4.19-5.18-.84-8.26 2.93-7.21 5.14 4 7 2.87 7.16-.24 8.15 3.12z" class="cls-19"/><path d="M153.66 84.52s-1.07-4.92-5.63-5.78-9.35 3.33-9.61 4.73-1.67 4-2.1 6.32 2.13 8 5.28 5.72 3.4-5.54 5.51-5.14 6.8-2.37 6.55-5.85z" class="cls-15"/><path d="M143.86 84.49s-3.67 1.13-4.45 3.34-1.32 6.11 1.25 5 3-3.26 4.3-3.55.9-3.87-1.1-4.79z" class="cls-16"/><path d="M142.85 82.12a2.82 2.82 0 012.46-1.53 8.56 8.56 0 013.8 1.08c.81.51 2.13 3.12.52 3s-1.54-.47-2.46-1.37-5.3-.08-4.32-1.18z" class="cls-17"/><path d="M143.69 90.19c-1.27 1-1 2.61-3.47 4s-3.87-3-3.87-3c.41 2.59 2.62 6.28 5.25 4.35 3.16-2.31 3.4-5.54 5.51-5.14 0-.03-2.11-1.16-3.42-.21zM148 78.74a6.71 6.71 0 00-1.84-.09c4.33 0 3.85 4.19 5.18 5.44s0 4.73 0 4.73a5.26 5.26 0 002.29-4.3s-1.04-4.92-5.63-5.78z" class="cls-18"/><path d="M146.28 103.33s3.45-3.67 1.57-7.91-8-5.81-9.34-5.23-4.28.91-6.41 1.85-5.4 6.3-1.71 7.59 6.49-.33 7.35 1.62 5.8 4.27 8.54 2.08z" class="cls-15"/><path d="M140.74 95.25s-3-2.38-5.27-1.77-5.78 2.36-3.37 3.83 4.36.61 5.36 1.54 3.66-1.43 3.28-3.6z" class="cls-16"/><path d="M142.12 93.07a2.86 2.86 0 012.67 1.16 8.79 8.79 0 011.26 3.77c0 1-1.37 3.53-2.18 2.14s-.49-1.54-.27-2.81-2.94-4.44-1.48-4.26z" class="cls-17"/><path d="M136 98.34c-1.5-.5-2.73.63-5.23-.61s.27-4.88.27-4.89c-1.9 1.81-3.68 5.71-.6 6.79 3.7 1.29 6.49-.33 7.35 1.62-.05 0-.33-2.4-1.79-2.91zM147.85 95.42a7.3 7.3 0 00-1-1.56c2.47 3.56-1.28 5.55-1.54 7.35s-3.9 2.68-3.9 2.67a5.23 5.23 0 004.84-.55s3.48-3.67 1.6-7.91z" class="cls-18"/><path d="M146.28 103.33s3.45-3.67 1.57-7.91-8-5.81-9.34-5.23-4.28.91-6.41 1.85-5.4 6.3-1.71 7.59 6.49-.33 7.35 1.62 5.8 4.27 8.54 2.08z" class="cls-19"/><path d="M157 83.2s4.89 1.22 5.61 5.81-3.62 9.23-5 9.45-4.09 1.55-6.38 1.91-8-2.37-5.55-5.46 5.63-3.23 5.3-5.34 2.56-6.73 6.02-6.37z" class="cls-15"/><path d="M156.76 93s-1.24 3.62-3.48 4.34-6.14 1.14-4.91-1.4 3.34-2.88 3.67-4.19 3.86-.75 4.72 1.25z" class="cls-16"/><path d="M159.09 94.08a2.85 2.85 0 001.61-2.42 8.65 8.65 0 00-1-3.83c-.49-.82-3.06-2.23-3-.61s.43 1.56 1.3 2.5 0 5.28 1.09 4.36z" class="cls-17"/><path d="M151.05 93c-1 1.24-2.64 1-4.07 3.35s2.87 4 2.88 4c-2.58-.49-6.19-2.81-4.18-5.39 2.4-3.08 5.63-3.23 5.3-5.34.02-.05 1.02 2.13.07 3.38zM162.64 89a7.48 7.48 0 010 1.83c.15-4.33-4.07-4-5.27-5.35s-4.73-.13-4.73-.13A5.23 5.23 0 01157 83.2s4.92 1.22 5.64 5.8z" class="cls-18"/><path d="M157 83.2s4.89 1.22 5.61 5.81-3.62 9.23-5 9.45-4.09 1.55-6.38 1.91-8-2.37-5.55-5.46 5.63-3.23 5.3-5.34 2.56-6.73 6.02-6.37z" class="cls-19"/><path d="M133.89 99.63s-1.63-4.77 1.84-7.86 9.71-2 10.67-.9 3.51 2.6 5 4.33 2.33 8-1.57 7.62-5.77-3-7.36-1.56-6.99 1.49-8.58-1.63z" class="cls-15"/><path d="M142.27 94.55s3.71-.93 5.52.56 4.29 4.55 1.5 4.9-4.23-1.26-5.52-.83-2.77-2.81-1.5-4.63z" class="cls-16"/><path d="M141.91 92a2.86 2.86 0 00-2.91 0 8.66 8.66 0 00-2.69 2.88c-.43.86-.22 3.78 1.1 2.85s1.08-1.21 1.4-2.45 4.5-2.84 3.1-3.28z" class="cls-17"/><path d="M145.35 99.35c1.58.16 2.23 1.7 5 1.6s1.77-4.55 1.77-4.57c1 2.44 1 6.73-2.26 6.44-3.9-.35-5.77-3-7.36-1.56.02 0 1.27-2.08 2.85-1.91zM135.73 91.77a7.35 7.35 0 011.52-1c-3.72 2.22-1.13 5.58-1.63 7.34s2.45 4 2.44 4a5.23 5.23 0 01-4.17-2.5s-1.63-4.75 1.84-7.84z" class="cls-18"/><path d="M128.42 90.68s4.89 1.22 5.61 5.81-3.62 9.23-5 9.46-4.09 1.54-6.38 1.9-8-2.37-5.55-5.46 5.63-3.23 5.3-5.34 2.53-6.72 6.02-6.37z" class="cls-15"/><path d="M128.14 100.48s-1.23 3.63-3.47 4.34-6.14 1.14-4.91-1.4 3.34-2.87 3.67-4.19 3.86-.78 4.71 1.25z" class="cls-16"/><path d="M130.48 101.56a2.85 2.85 0 001.61-2.42 8.6 8.6 0 00-1-3.82c-.49-.83-3.06-2.24-3-.62s.43 1.56 1.3 2.51-.04 5.29 1.09 4.35z" class="cls-17"/><path d="M122.44 100.47c-1 1.24-2.64 1-4.07 3.35s2.87 4 2.88 4c-2.58-.49-6.2-2.81-4.18-5.39 2.4-3.08 5.63-3.23 5.3-5.34 0-.04 1.06 2.14.07 3.38zM134 96.49a7.48 7.48 0 010 1.83c.15-4.32-4.07-4-5.27-5.34s-4.73-.14-4.73-.14a5.26 5.26 0 014.37-2.16s4.94 1.22 5.63 5.81z" class="cls-18"/><path d="M128.42 90.68s4.89 1.22 5.61 5.81-3.62 9.23-5 9.46-4.09 1.54-6.38 1.9-8-2.37-5.55-5.46 5.63-3.23 5.3-5.34 2.53-6.72 6.02-6.37z" class="cls-19"/><path d="M202 115.1s-.91 5-5.44 6-9.45-3-9.76-4.42-1.8-4-2.3-6.25 1.86-8.09 5.09-5.88 3.58 5.42 5.67 5 6.91 2.05 6.74 5.55z" class="cls-15"/><path d="M192.24 115.45s-3.69-1-4.54-3.2-1.53-6.06 1.08-5 3.08 3.15 4.41 3.4 1.03 3.81-.95 4.8z" class="cls-16"/><path d="M191.31 117.85a2.85 2.85 0 002.52 1.45 8.74 8.74 0 003.75-1.2c.8-.54 2-3.19.43-3s-1.53.52-2.42 1.45-5.29.23-4.28 1.3z" class="cls-17"/><path d="M191.89 109.75c-1.3-.91-1.12-2.57-3.59-3.85s-3.78 3.11-3.78 3.13c.33-2.61 2.41-6.36 5.11-4.52 3.23 2.21 3.58 5.42 5.67 5 0-.04-2.11 1.15-3.41.24zM196.6 121.06a7.08 7.08 0 01-1.83.15c4.32-.13 3.71-4.32 5-5.61s-.16-4.72-.16-4.72a5.24 5.24 0 012.39 4.22s-.87 4.95-5.4 5.96z" class="cls-18"/><path d="M187.57 96.52s3.57 3.56 1.83 7.86-7.85 6.07-9.17 5.54-4.3-.78-6.45-1.65-5.62-6.12-2-7.53 6.5.13 7.3-1.86 5.68-4.45 8.49-2.36z" class="cls-15"/><path d="M182.31 104.79s-2.93 2.48-5.21 1.94-5.86-2.18-3.5-3.73 4.34-.74 5.3-1.7 3.71 1.3 3.41 3.49z" class="cls-16"/><path d="M183.76 106.92a2.84 2.84 0 002.62-1.25 8.61 8.61 0 001.14-3.78c0-1-1.48-3.48-2.25-2.06s-.43 1.56-.17 2.82-2.8 4.5-1.34 4.27z" class="cls-17"/><path d="M177.41 101.85c-1.49.55-2.75-.53-5.2.78s.42 4.87.43 4.88c-2-1.74-3.87-5.59-.83-6.77 3.65-1.41 6.5.13 7.3-1.86 0 0-.21 2.42-1.7 2.97zM189.4 104.38a6.86 6.86 0 01-.92 1.6c2.35-3.63-1.45-5.5-1.78-7.29s-4-2.55-4-2.55a5.24 5.24 0 014.85.39s3.59 3.55 1.85 7.85z" class="cls-18"/><path d="M187.57 96.52s3.57 3.56 1.83 7.86-7.85 6.07-9.17 5.54-4.3-.78-6.45-1.65-5.62-6.12-2-7.53 6.5.13 7.3-1.86 5.68-4.45 8.49-2.36z" class="cls-19"/><path d="M159.28 98.73s1.05-4.92 5.61-5.79 9.35 3.3 9.62 4.7 1.68 4 2.12 6.32-2.1 8-5.27 5.73-3.42-5.53-5.52-5.13-6.84-2.33-6.56-5.83z" class="cls-15"/><path d="M169.08 98.68s3.66 1.11 4.45 3.32 1.35 6.11-1.23 5-3-3.24-4.31-3.53-.92-3.87 1.09-4.79z" class="cls-16"/><path d="M170.08 96.31a2.83 2.83 0 00-2.47-1.53 8.5 8.5 0 00-3.79 1.09c-.81.51-2.13 3.13-.52 3s1.54-.47 2.46-1.38 5.3-.09 4.32-1.18z" class="cls-17"/><path d="M169.26 104.38c1.27 1 1 2.6 3.48 4s3.86-3 3.86-3c-.4 2.6-2.59 6.29-5.24 4.37-3.16-2.31-3.42-5.53-5.52-5.13 0-.06 2.16-1.19 3.42-.24zM164.89 92.94a7.06 7.06 0 011.83-.1c-4.33 0-3.83 4.2-5.17 5.45s0 4.72 0 4.72a5.2 5.2 0 01-2.3-4.29s1.08-4.91 5.64-5.78z" class="cls-18"/><path d="M173.18 117.73s-3.46-3.66-1.59-7.91 8-5.84 9.33-5.26 4.28.9 6.4 1.84 5.43 6.28 1.74 7.58-6.49-.32-7.35 1.64-5.78 4.29-8.53 2.11z" class="cls-15"/><path d="M178.7 109.62s3-2.38 5.26-1.78 5.79 2.35 3.38 3.83-4.36.62-5.35 1.54-3.67-1.41-3.29-3.59z" class="cls-16"/><path d="M177.31 107.45a2.85 2.85 0 00-2.66 1.18 8.53 8.53 0 00-1.25 3.74c0 1 1.37 3.52 2.18 2.12s.48-1.54.26-2.81 2.93-4.41 1.47-4.23z" class="cls-17"/><path d="M183.5 112.71c1.5-.51 2.73.61 5.23-.63s-.28-4.88-.3-4.89c1.92 1.8 3.71 5.7.63 6.79-3.69 1.3-6.49-.32-7.35 1.64 0 0 .29-2.41 1.79-2.91zM171.59 109.82a6.89 6.89 0 011-1.56c-2.45 3.56 1.29 5.54 1.57 7.35s3.9 2.66 3.91 2.66a5.27 5.27 0 01-4.85-.54s-3.5-3.66-1.63-7.91z" class="cls-18"/><path d="M173.18 117.73s-3.46-3.66-1.59-7.91 8-5.84 9.33-5.26 4.28.9 6.4 1.84 5.43 6.28 1.74 7.58-6.49-.32-7.35 1.64-5.78 4.29-8.53 2.11z" class="cls-19"/><path d="M173.65 106.82s-.91 5-5.44 6-9.45-3-9.76-4.41-1.8-4-2.3-6.26 1.85-8.15 5.09-5.92 3.58 5.42 5.67 5 6.87 2.09 6.74 5.59z" class="cls-15"/><path d="M163.85 107.17s-3.69-1-4.55-3.19-1.52-6.06 1.09-5 3.08 3.15 4.41 3.41 1.03 3.79-.95 4.78z" class="cls-16"/><path d="M162.92 109.57a2.85 2.85 0 002.52 1.45 8.56 8.56 0 003.75-1.2c.8-.54 2-3.19.43-3s-1.53.52-2.42 1.45-5.29.23-4.28 1.3z" class="cls-17"/><path d="M163.5 101.47c-1.3-.91-1.12-2.57-3.6-3.85s-3.76 3.11-3.77 3.13c.33-2.61 2.41-6.36 5.11-4.52 3.23 2.21 3.58 5.42 5.67 5 0-.04-2.11 1.16-3.41.24zM168.21 112.78a7.08 7.08 0 01-1.83.15c4.32-.13 3.71-4.32 5-5.61s-.16-4.72-.16-4.72a5.25 5.25 0 012.43 4.22s-.91 4.96-5.44 5.96z" class="cls-18"/><path d="M168.56 87.46s3.57 3.55 1.83 7.86-7.84 6.07-9.17 5.53-4.31-.78-6.46-1.65-5.61-6.11-2-7.53 6.5.13 7.3-1.86 5.69-4.45 8.5-2.35z" class="cls-15"/><path d="M163.3 95.72s-2.93 2.48-5.22 1.94-5.85-2.18-3.49-3.73 4.34-.74 5.3-1.7 3.71 1.31 3.41 3.49z" class="cls-16"/><path d="M164.75 97.85a2.84 2.84 0 002.62-1.25 8.71 8.71 0 001.14-3.78c0-1-1.48-3.48-2.25-2.06s-.44 1.56-.17 2.82-2.8 4.5-1.34 4.27z" class="cls-17"/><path d="M158.4 92.78c-1.49.56-2.75-.53-5.21.78s.43 4.87.44 4.88c-2-1.74-3.88-5.59-.83-6.77 3.65-1.41 6.5.13 7.3-1.86 0 0-.21 2.42-1.7 2.97zM170.39 95.32a7 7 0 01-.92 1.59c2.35-3.63-1.45-5.5-1.78-7.29s-4-2.55-4-2.55a5.21 5.21 0 014.85.4s3.59 3.53 1.85 7.85z" class="cls-18"/><path d="M168.56 87.46s3.57 3.55 1.83 7.86-7.84 6.07-9.17 5.53-4.31-.78-6.46-1.65-5.61-6.11-2-7.53 6.5.13 7.3-1.86 5.69-4.45 8.5-2.35z" class="cls-19"/><path d="M139.1 93.31s-.22-5 4-7 9.89.83 10.5 2.11 2.65 3.49 3.65 5.58 0 8.31-3.65 6.88-4.7-4.48-6.63-3.56-7.22-.57-7.87-4.01z" class="cls-15"/><path d="M148.57 90.78s3.82.15 5.14 2.09 2.85 5.56.07 5.11-3.71-2.39-5.06-2.33-1.86-3.47-.15-4.87z" class="cls-16"/><path d="M148.93 88.23a2.82 2.82 0 00-2.77-.85 8.56 8.56 0 00-3.39 2c-.66.7-1.27 3.57.26 3s1.37-.86 2-2 5.13-1.38 3.9-2.15z" class="cls-17"/><path d="M150.18 96.25c1.48.6 1.67 2.25 4.37 2.94s3-3.87 3-3.89c.27 2.62-.92 6.74-4 5.55-3.64-1.43-4.7-4.48-6.63-3.56.01 0 1.8-1.64 3.26-1.04zM143.06 86.28a6.91 6.91 0 011.76-.55c-4.18 1.09-2.64 5-3.62 6.58s1.22 4.57 1.22 4.57a5.24 5.24 0 01-3.31-3.57s-.23-5.03 3.95-7.03z" class="cls-18"/><path d="M144.79 109.45s-3.45-3.66-1.59-7.91 8-5.83 9.33-5.26 4.28.91 6.4 1.84 5.43 6.28 1.74 7.58-6.49-.31-7.35 1.65-5.78 4.28-8.53 2.1z" class="cls-15"/><path d="M150.3 101.35s3-2.39 5.27-1.79 5.79 2.35 3.38 3.83-4.36.62-5.35 1.55-3.67-1.42-3.3-3.59z" class="cls-16"/><path d="M148.92 99.18a2.83 2.83 0 00-2.66 1.17 8.61 8.61 0 00-1.25 3.74c0 1 1.37 3.52 2.18 2.13s.48-1.55.26-2.81 2.93-4.41 1.47-4.23z" class="cls-17"/><path d="M155.1 104.43c1.51-.51 2.74.61 5.23-.63s-.28-4.87-.28-4.89c1.91 1.81 3.7 5.71.62 6.79-3.69 1.3-6.49-.31-7.35 1.65 0 0 .28-2.41 1.78-2.92zM143.2 101.54a6.58 6.58 0 011-1.56c-2.45 3.56 1.29 5.54 1.57 7.35s3.9 2.66 3.91 2.66a5.27 5.27 0 01-4.85-.54s-3.49-3.66-1.63-7.91z" class="cls-18"/><path d="M144.79 109.45s-3.45-3.66-1.59-7.91 8-5.83 9.33-5.26 4.28.91 6.4 1.84 5.43 6.28 1.74 7.58-6.49-.31-7.35 1.65-5.78 4.28-8.53 2.1z" class="cls-19"/><path d="M134 89.35s-4.88 1.24-5.59 5.82 3.64 9.23 5.05 9.45 4.1 1.53 6.39 1.88 8-2.39 5.54-5.47-5.65-3.22-5.32-5.33-2.6-6.7-6.07-6.35z" class="cls-15"/><path d="M134.28 99.15s1.25 3.62 3.49 4.32 6.15 1.13 4.91-1.41-3.35-2.86-3.69-4.18-3.85-.77-4.71 1.27z" class="cls-16"/><path d="M132 100.23a2.85 2.85 0 01-1.62-2.41 8.8 8.8 0 01.95-3.83c.49-.83 3.06-2.24 3-.62s-.42 1.56-1.29 2.51.04 5.29-1.04 4.35z" class="cls-17"/><path d="M140 99.12c1 1.24 2.64.95 4.08 3.33s-2.86 4-2.87 4c2.58-.5 6.19-2.83 4.17-5.4-2.41-3.08-5.65-3.22-5.32-5.33-.01-.02-1.06 2.16-.06 3.4zM128.39 95.17a7.09 7.09 0 000 1.84c-.16-4.33 4.06-4 5.26-5.37s4.73-.15 4.73-.15a5.24 5.24 0 00-4.38-2.14s-4.9 1.24-5.61 5.82z" class="cls-18"/><path d="M134 89.35s-4.88 1.24-5.59 5.82 3.64 9.23 5.05 9.45 4.1 1.53 6.39 1.88 8-2.39 5.54-5.47-5.65-3.22-5.32-5.33-2.6-6.7-6.07-6.35z" class="cls-19"/><path d="M157.17 105.71s1.61-4.77-1.86-7.85-9.72-1.94-10.67-.88-3.51 2.62-5 4.35-2.3 8 1.6 7.62 5.76-3 7.36-1.58 6.99 1.47 8.57-1.66z" class="cls-15"/><path d="M148.78 100.66s-3.72-.92-5.53.58-4.28 4.55-1.47 4.89 4.22-1.26 5.51-.84 2.71-2.82 1.49-4.63z" class="cls-16"/><path d="M149.13 98.1a2.81 2.81 0 012.9 0 8.54 8.54 0 012.71 2.87c.43.86.23 3.78-1.1 2.85s-1.08-1.2-1.41-2.45-4.5-2.82-3.1-3.27z" class="cls-17"/><path d="M145.71 105.46c-1.58.17-2.23 1.71-5 1.62s-1.79-4.54-1.79-4.56c-1 2.44-1 6.73 2.28 6.43 3.89-.36 5.76-3 7.36-1.58-.01 0-1.27-2.08-2.85-1.91zM155.31 97.86a6.8 6.8 0 00-1.53-1c3.73 2.21 1.15 5.58 1.66 7.33s-2.44 4-2.44 4.06a5.25 5.25 0 004.17-2.52s1.61-4.79-1.86-7.87z" class="cls-18"/><path d="M135.51 114.93s4.84-1.38 5.41-6-3.91-9.11-5.32-9.28-4.15-1.41-6.45-1.7-7.88 2.63-5.37 5.63 5.74 3 5.48 5.17 2.74 6.65 6.25 6.18z" class="cls-15"/><path d="M134.92 105.15s-1.36-3.59-3.62-4.23-6.18-.94-4.86 1.56 3.43 2.76 3.81 4.07 3.87.66 4.67-1.4z" class="cls-16"/><path d="M137.22 104a2.84 2.84 0 011.68 2.37 8.57 8.57 0 01-.83 3.85c-.46.84-3 2.33-3 .71s.38-1.57 1.22-2.54-.23-5.3.93-4.39z" class="cls-17"/><path d="M129.22 105.34c-1-1.2-2.67-.87-4.18-3.21s2.73-4 2.75-4c-2.57.57-6.1 3-4 5.51 2.51 3 5.74 3 5.48 5.17-.01-.05.98-2.26-.05-3.47zM140.92 108.94a6.59 6.59 0 000-1.83c.29 4.32-3.94 4.1-5.1 5.52s-4.72.29-4.72.29a5.26 5.26 0 004.44 2s4.81-1.37 5.38-5.98z" class="cls-18"/><path d="M135.51 114.93s4.84-1.38 5.41-6-3.91-9.11-5.32-9.28-4.15-1.41-6.45-1.7-7.88 2.63-5.37 5.63 5.74 3 5.48 5.17 2.74 6.65 6.25 6.18z" class="cls-19"/><path d="M140.69 105.32s-1.75 4.72 1.63 7.9 9.66 2.23 10.64 1.19 3.58-2.5 5.17-4.19 2.54-7.91-1.37-7.66-5.85 2.83-7.41 1.36-6.99-1.68-8.66 1.4z" class="cls-15"/><path d="M148.93 110.62s3.69 1 5.54-.42 4.41-4.43 1.62-4.84-4.26 1.13-5.53.67-2.83 2.73-1.63 4.59z" class="cls-16"/><path d="M148.5 113.16a2.83 2.83 0 01-2.9 0 8.64 8.64 0 01-2.62-3c-.4-.87-.12-3.78 1.18-2.81s1.05 1.23 1.34 2.48 4.42 2.93 3 3.33z" class="cls-17"/><path d="M152.14 105.91c1.58-.13 2.27-1.64 5.06-1.47s1.65 4.59 1.64 4.61c1.06-2.41 1.18-6.7-2.08-6.49-3.9.24-5.85 2.83-7.41 1.36 0 0 1.21 2.08 2.79 1.99zM142.32 113.22a6.64 6.64 0 001.49 1.06c-3.65-2.32-1-5.6-1.43-7.37s2.55-4 2.55-4a5.22 5.22 0 00-4.24 2.39s-1.75 4.7 1.63 7.92z" class="cls-18"/><path d="M162.61 96.75s-4.88 1.25-5.61 5.82 3.63 9.23 5.05 9.44 4.1 1.53 6.39 1.89 7.95-2.39 5.53-5.47-5.64-3.22-5.32-5.33-2.55-6.72-6.04-6.35z" class="cls-15"/><path d="M162.92 106.54s1.25 3.63 3.48 4.33 6.15 1.13 4.91-1.41-3.35-2.86-3.69-4.18-3.85-.77-4.7 1.26z" class="cls-16"/><path d="M160.58 107.63a2.83 2.83 0 01-1.61-2.42 8.51 8.51 0 01.95-3.82c.49-.83 3.05-2.24 3-.63s-.42 1.56-1.29 2.51.09 5.3-1.05 4.36z" class="cls-17"/><path d="M168.62 106.52c1 1.23 2.64.94 4.08 3.33s-2.85 4-2.87 4c2.58-.49 6.19-2.82 4.17-5.39-2.41-3.08-5.64-3.22-5.32-5.33 0-.03-1.06 2.15-.06 3.39zM157 102.57a6.67 6.67 0 000 1.84c-.16-4.32 4.06-4 5.26-5.36s4.73-.15 4.73-.15a5.24 5.24 0 00-4.38-2.14s-4.88 1.24-5.61 5.81z" class="cls-18"/><path d="M162.61 96.75s-4.88 1.25-5.61 5.82 3.63 9.23 5.05 9.44 4.1 1.53 6.39 1.89 7.95-2.39 5.53-5.47-5.64-3.22-5.32-5.33-2.55-6.72-6.04-6.35z" class="cls-19"/><path d="M185.8 113.11s1.61-4.77-1.86-7.85-9.72-2-10.67-.88-3.51 2.61-5.05 4.35-2.3 8 1.6 7.61 5.76-3 7.36-1.58 7.05 1.48 8.62-1.65z" class="cls-15"/><path d="M177.41 108.05s-3.72-.91-5.53.58-4.27 4.56-1.47 4.9 4.22-1.27 5.51-.84 2.74-2.82 1.49-4.64z" class="cls-16"/><path d="M177.76 105.5a2.85 2.85 0 012.91 0 8.7 8.7 0 012.7 2.87c.43.86.23 3.78-1.1 2.85s-1.08-1.2-1.4-2.44-4.51-2.84-3.11-3.28z" class="cls-17"/><path d="M174.34 112.86c-1.58.17-2.23 1.7-5 1.62s-1.79-4.55-1.78-4.56c-1 2.44-1 6.73 2.27 6.42 3.9-.36 5.76-3 7.36-1.58-.01 0-1.27-2.07-2.85-1.9zM183.94 105.26a6.48 6.48 0 00-1.53-1c3.73 2.21 1.15 5.58 1.66 7.33s-2.44 4.05-2.44 4.05a5.22 5.22 0 004.17-2.51s1.61-4.79-1.86-7.87z" class="cls-18"/><path d="M164.14 122.33s4.85-1.38 5.42-6-3.91-9.11-5.33-9.29-4.14-1.41-6.45-1.69-7.87 2.62-5.37 5.63 5.74 3 5.48 5.17 2.78 6.65 6.25 6.18z" class="cls-15"/><path d="M163.55 112.54s-1.36-3.58-3.61-4.22-6.18-.94-4.87 1.56 3.43 2.76 3.81 4.07 3.88.65 4.67-1.41z" class="cls-16"/><path d="M165.85 111.39a2.84 2.84 0 011.69 2.36 8.57 8.57 0 01-.84 3.86c-.46.84-3 2.33-3 .71s.37-1.57 1.21-2.55-.22-5.29.94-4.38z" class="cls-17"/><path d="M157.85 112.74c-1-1.21-2.67-.87-4.18-3.21s2.74-4 2.75-4.06c-2.56.58-6.1 3-4 5.52 2.51 3 5.74 3 5.48 5.17-.01 0 .98-2.16-.05-3.42zM169.56 116.34a7.55 7.55 0 000-1.84c.29 4.32-3.95 4.1-5.1 5.51s-4.72.3-4.72.29a5.22 5.22 0 004.43 2s4.83-1.3 5.39-5.96z" class="cls-18"/><path d="M164.14 122.33s4.85-1.38 5.42-6-3.91-9.11-5.33-9.29-4.14-1.41-6.45-1.69-7.87 2.62-5.37 5.63 5.74 3 5.48 5.17 2.78 6.65 6.25 6.18z" class="cls-19"/><path d="M162.35 116l-18 97.55s-25.64-10.53-35.68-12.08L98.36 100.79S134 102 162.35 116z" class="cls-8"/><path d="M149.3 110.56L137.91 211c3.83 1.49 6.41 2.55 6.41 2.55l18-97.55a118.88 118.88 0 00-13.02-5.44zM122.74 205.46c2.68.92 5.41 1.9 8 2.85l6.55-101.44c-4-1.05-7.82-1.91-11.48-2.63zM98.36 100.79l10.28 100.72a51.54 51.54 0 015.89 1.37l-.67-100.62c-9.29-1.26-15.5-1.47-15.5-1.47z" class="cls-4"/><path d="M162.35 116l-18.26 98.79s19.16-7.55 29.43-7.88l32.73-89s-25.13-11.39-43.9-1.91z" class="cls-8"/><path d="M154.83 210.44c3.31-.89 7-1.79 10.55-2.46l29.11-93.88c-.58-.13-1.17-.27-1.76-.39l-.52-.11-1.36-.26-.61-.11q-.71-.14-1.44-.24l-.51-.08c-1.34-.2-2.71-.36-4.11-.47h-.5l-1.64-.1H179.28c-.74 0-1.48 0-2.23.07z" class="cls-4"/><path d="M162.43 116l-18.11 97.55s19-6.3 29.28-6.63l32.72-89s-25.13-11.39-43.89-1.92z" style="mix-blend-mode:multiply" fill="#c8c8c8"/></g></g></svg>